<svg xmlns="http://www.w3.org/2000/svg" width="800" height="800" viewBox="0 0 100 100"><rect width="100" height="100" fill="#fff"/><path id="region-1" d="M12 54C7 45 13 35 23 35C25 24 37 19 46 26C54 15 70 18 74 31C87 30 94 42 88 52C97 61 89 74 77 72H24C13 73 6 63 12 54Z" fill="#fffef9" stroke="#232a35" stroke-width="2.8" stroke-linejoin="round" stroke-linecap="round"/><path id="region-2" d="M21 52C17 45 22 39 29 40C28 33 36 28 42 33C48 38 43 47 36 46C33 53 27 57 21 52Z" fill="#fffef9" stroke="#232a35" stroke-width="2.8" stroke-linejoin="round" stroke-linecap="round"/><path id="region-3" d="M43 35C44 27 54 23 61 28C68 32 66 42 59 45C51 48 43 43 43 35Z" fill="#fffef9" stroke="#232a35" stroke-width="2.8" stroke-linejoin="round" stroke-linecap="round"/><path id="region-4" d="M65 48C66 39 77 36 83 43C90 50 85 59 77 60C70 62 64 56 65 48Z" fill="#fffef9" stroke="#232a35" stroke-width="2.8" stroke-linejoin="round" stroke-linecap="round"/><path id="region-5" d="M27 61C35 55 44 57 49 64C54 55 67 55 73 64C65 61 61 71 52 70C44 78 33 72 27 61Z" fill="#fffef9" stroke="#232a35" stroke-width="2.8" stroke-linejoin="round" stroke-linecap="round"/><path id="region-6" d="M17 78C28 69 39 72 47 80C35 79 28 88 17 78Z" fill="#fffef9" stroke="#232a35" stroke-width="2.8" stroke-linejoin="round" stroke-linecap="round"/><path id="region-7" d="M53 81C63 70 78 70 87 80C75 78 67 91 53 81Z" fill="#fffef9" stroke="#232a35" stroke-width="2.8" stroke-linejoin="round" stroke-linecap="round"/></svg>