<svg xmlns="http://www.w3.org/2000/svg" width="800" height="800" viewBox="0 0 100 100"><rect width="100" height="100" fill="#fff"/><path id="region-1" d="M50 43A7 7 0 1 1 50 57A7 7 0 1 1 50 43Z" fill="#fffef9" stroke="#232a35" stroke-width="2.8" stroke-linejoin="round" stroke-linecap="round"/><path id="region-2" d="M47 40C41 33 43 23 50 18C57 23 59 33 53 40C51 42 49 42 47 40Z" fill="#fffef9" stroke="#232a35" stroke-width="2.8" stroke-linejoin="round" stroke-linecap="round"/><path id="region-3" d="M59 45C60 36 69 31 78 34C79 43 72 51 63 51C60 51 58 48 59 45Z" fill="#fffef9" stroke="#232a35" stroke-width="2.8" stroke-linejoin="round" stroke-linecap="round"/><path id="region-4" d="M57 59C66 55 75 59 79 68C71 75 61 72 56 64C54 62 55 60 57 59Z" fill="#fffef9" stroke="#232a35" stroke-width="2.8" stroke-linejoin="round" stroke-linecap="round"/><path id="region-5" d="M47 60C53 58 55 60 54 64C53 74 50 78 50 82C43 77 41 67 47 60Z" fill="#fffef9" stroke="#232a35" stroke-width="2.8" stroke-linejoin="round" stroke-linecap="round"/><path id="region-6" d="M43 59C45 60 46 62 44 64C39 72 29 75 21 68C25 59 34 55 43 59Z" fill="#fffef9" stroke="#232a35" stroke-width="2.8" stroke-linejoin="round" stroke-linecap="round"/><path id="region-7" d="M41 45C42 48 40 51 37 51C28 51 21 43 22 34C31 31 40 36 41 45Z" fill="#fffef9" stroke="#232a35" stroke-width="2.8" stroke-linejoin="round" stroke-linecap="round"/><path id="region-8" d="M45 19C36 17 29 21 25 28C34 29 40 34 43 41C43 31 45 25 45 19Z" fill="#fffef9" stroke="#232a35" stroke-width="2.8" stroke-linejoin="round" stroke-linecap="round"/><path id="region-9" d="M55 19C64 17 71 21 75 28C66 29 60 34 57 41C57 31 55 25 55 19Z" fill="#fffef9" stroke="#232a35" stroke-width="2.8" stroke-linejoin="round" stroke-linecap="round"/><path id="region-10" d="M80 31C87 36 89 44 86 52C79 48 72 48 65 52C72 44 77 38 80 31Z" fill="#fffef9" stroke="#232a35" stroke-width="2.8" stroke-linejoin="round" stroke-linecap="round"/><path id="region-11" d="M82 62C82 72 76 79 67 82C64 73 60 68 54 64C65 66 75 66 82 62Z" fill="#fffef9" stroke="#232a35" stroke-width="2.8" stroke-linejoin="round" stroke-linecap="round"/><path id="region-12" d="M18 62C18 72 24 79 33 82C36 73 40 68 46 64C35 66 25 66 18 62Z" fill="#fffef9" stroke="#232a35" stroke-width="2.8" stroke-linejoin="round" stroke-linecap="round"/><path id="region-13" d="M20 31C13 36 11 44 14 52C21 48 28 48 35 52C28 44 23 38 20 31Z" fill="#fffef9" stroke="#232a35" stroke-width="2.8" stroke-linejoin="round" stroke-linecap="round"/></svg>